HIERARCHY
ROOT Hips
{
  OFFSET 0.000000 0.000000 0.000000
  CHANNELS 6 Xposition Yposition Zposition Zrotation Yrotation Xrotation
  JOINT Spine
  {
    OFFSET -0.022549 1.907644 -0.166052
    CHANNELS 3 Zrotation Yrotation Xrotation
    JOINT Spine1
    {
      OFFSET -0.003648 1.921501 -0.048982
      CHANNELS 3 Zrotation Yrotation Xrotation
      JOINT Spine2
      {
        OFFSET 0.006489 1.931144 0.029434
        CHANNELS 3 Zrotation Yrotation Xrotation
        JOINT Neck
        {
          OFFSET 0.003717 1.591703 0.086942
          CHANNELS 3 Zrotation Yrotation Xrotation
          JOINT Head
          {
            OFFSET 0.042114 1.608349 -0.038029
            CHANNELS 3 Zrotation Yrotation Xrotation
            End Site
            {
              OFFSET 0 0 0
            }
          }
        }
        JOINT LeftShoulder
        {
          OFFSET 3.693241 0.963159 0.190769
          CHANNELS 3 Zrotation Yrotation Xrotation
          JOINT LeftArm
          {
            OFFSET 4.877960 -0.000000 -0.000000
            CHANNELS 3 Zrotation Yrotation Xrotation
            JOINT LeftForeArm
            {
              OFFSET 3.231690 -0.000000 0.000000
              CHANNELS 3 Zrotation Yrotation Xrotation
              JOINT LeftHand
              {
                OFFSET 0.731324 -0.000000 0.000000
                CHANNELS 3 Zrotation Yrotation Xrotation
                JOINT LeftHandIndex1
                {
                  OFFSET 0.589612 -0.000000 0.000000
                  CHANNELS 3 Zrotation Yrotation Xrotation
                  End Site
                  {
                    OFFSET 0 0 0
                  }
                }
              }
            }
          }
        }
        JOINT RightShoulder
        {
          OFFSET -3.661026 0.751452 0.082811
          CHANNELS 3 Zrotation Yrotation Xrotation
          JOINT RightArm
          {
            OFFSET -4.914300 -0.000000 0.000000
            CHANNELS 3 Zrotation Yrotation Xrotation
            JOINT RightForeArm
            {
              OFFSET -3.290930 -0.000000 0.000000
              CHANNELS 3 Zrotation Yrotation Xrotation
              JOINT RightHand
              {
                OFFSET -0.545120 -0.000000 0.000000
                CHANNELS 3 Zrotation Yrotation Xrotation
                JOINT RightHandIndex1
                {
                  OFFSET -0.439490 -0.000000 0.000000
                  CHANNELS 3 Zrotation Yrotation Xrotation
                  End Site
                  {
                    OFFSET 0 0 0
                  }
                }
              }
            }
          }
        }
      }
    }
  }
  JOINT LeftUpLeg
  {
    OFFSET 2.238894 -6.151315 0.000000
    CHANNELS 3 Zrotation Yrotation Xrotation
    JOINT LeftLeg
    {
      OFFSET 2.651613 -7.285252 0.000000
      CHANNELS 3 Zrotation Yrotation Xrotation
      JOINT LeftFoot
      {
        OFFSET 0.248981 -0.684068 1.572347
        CHANNELS 3 Zrotation Yrotation Xrotation
        JOINT LeftToeBase
        {
          OFFSET 0.000000 -0.000000 0.858383
          CHANNELS 3 Zrotation Yrotation Xrotation
          End Site
          {
            OFFSET 0 0 0
          }
        }
      }
    }
  }
  JOINT RightUpLeg
  {
    OFFSET -2.340706 -6.431043 0.000000
    CHANNELS 3 Zrotation Yrotation Xrotation
    JOINT RightLeg
    {
      OFFSET -2.591130 -7.119077 0.000000
      CHANNELS 3 Zrotation Yrotation Xrotation
      JOINT RightFoot
      {
        OFFSET -0.178671 -0.490893 1.709806
        CHANNELS 3 Zrotation Yrotation Xrotation
        JOINT RightToeBase
        {
          OFFSET -0.000000 -0.000000 0.898614
          CHANNELS 3 Zrotation Yrotation Xrotation
          End Site
          {
            OFFSET 0 0 0
          }
        }
      }
    }
  }
}
MOTION
Frames: 8
Frame Time: 0.00833333
12.968000 15.999800 1.391510 129.782000 -88.540600 -131.682000 -12.039300 0.484083 -14.622800 0.000000 0.000000 41.660000 18.903800 0.000000 -31.299400 0.000000 0.000000 -23.685600 13.100000 6.203580 -12.656200 0.000000 0.000000 44.098800 -20.994000 0.000000 -27.471200 0.000000 0.000000 -3.767240 1.173940 0.911715 -6.991790 -1.981610 1.217040 3.760660 -2.584820 0.705936 7.959740 -1.913370 -1.080750 -4.812020 2.013960 -0.770319 3.482450 0.000000 -0.000000 0.000000 84.173900 -11.255200 -27.903200 0.000000 0.000000 58.265500 -24.549900 0.000000 -38.940000 0.000000 0.000000 7.125020 0.000000 -0.000000 0.000000 -87.991200 5.679990 -30.563300 0.000000 0.000000 53.722400 -28.155500 0.000000 -33.884700 0.000000 0.000000 7.125020
12.963000 15.996700 1.401880 128.921000 -88.465800 -130.917000 -12.185600 0.385778 -14.466900 0.000000 0.000000 41.648900 19.168300 0.000000 -31.531100 0.000000 0.000000 -24.638900 12.983700 6.179950 -12.551000 0.000000 0.000000 44.122200 -20.994900 0.000000 -27.420700 0.000000 0.000000 -4.453100 0.668921 0.559729 -6.964900 -1.583620 0.769233 4.029230 -1.942400 0.450109 8.192010 -2.809320 -0.732724 -5.931380 2.161270 -0.494203 3.754450 0.000000 -0.000000 0.000000 84.469100 -9.643750 -27.547800 0.000000 0.000000 58.315100 -23.983400 0.000000 -36.613900 0.000000 0.000000 7.125020 0.000000 -0.000000 0.000000 -87.702100 6.810260 -29.730600 0.000000 0.000000 53.197200 -27.970200 0.000000 -33.792000 0.000000 0.000000 7.125020
12.955000 15.995100 1.416000 123.786000 -88.292600 -125.766000 -12.511400 0.326150 -14.438700 0.000000 0.000000 41.618700 19.251000 0.000000 -31.588000 0.000000 0.000000 -24.635500 12.625700 5.945300 -12.561100 0.000000 0.000000 44.144800 -20.921300 0.000000 -27.281200 0.000000 0.000000 -5.087290 1.313580 1.035620 -6.990570 -2.404770 1.394760 3.575460 -3.087220 0.808702 7.787220 -1.692080 -1.047760 -4.315670 1.931570 -0.753849 3.261610 0.000000 -0.000000 0.000000 83.956700 -11.275600 -28.371300 0.000000 0.000000 58.551600 -23.757100 0.000000 -34.871600 0.000000 0.000000 7.125020 0.000000 -0.000000 0.000000 -88.464800 4.850190 -30.915900 0.000000 0.000000 53.170100 -28.029000 0.000000 -33.810400 0.000000 0.000000 7.125020
12.946800 15.995600 1.422660 123.858000 -88.213300 -125.814000 -12.602300 0.452634 -14.423000 0.000000 0.000000 41.605200 19.344800 0.000000 -31.575700 0.000000 0.000000 -24.689500 12.553800 6.138440 -12.548700 0.000000 0.000000 44.154700 -20.980500 0.000000 -27.428000 0.000000 0.000000 -4.865250 0.851381 0.790039 -7.074690 -2.090510 1.093350 3.756500 -2.534950 0.630838 7.992000 -2.273450 -0.838713 -5.035620 1.973720 -0.582016 3.357860 0.000000 0.000000 0.000000 84.126600 -9.894380 -28.066500 0.000000 0.000000 58.672300 -23.760700 0.000000 -33.140700 0.000000 0.000000 7.125020 0.000000 0.000000 0.000000 -88.248400 5.832420 -30.486200 0.000000 0.000000 53.003800 -27.986600 0.000000 -34.027500 0.000000 0.000000 7.125020
12.940600 15.995400 1.430980 123.180000 -88.160000 -125.138000 -12.697400 0.489893 -14.393400 0.000000 0.000000 41.596200 19.409100 0.000000 -31.612400 0.000000 0.000000 -24.790500 12.474700 6.221030 -12.518200 0.000000 0.000000 44.158700 -21.067300 0.000000 -27.449200 0.000000 0.000000 -5.090160 0.820361 0.794393 -7.093400 -2.146740 1.105870 3.728760 -2.575070 0.636497 7.974440 -2.269340 -0.788562 -5.019470 1.930220 -0.543262 3.284550 0.000000 -0.000000 0.000000 84.075300 -9.582840 -28.130800 0.000000 0.000000 58.810300 -23.560700 0.000000 -31.460900 0.000000 0.000000 7.125020 0.000000 -0.000000 0.000000 -88.358600 5.767710 -30.546100 0.000000 0.000000 52.834100 -27.942000 0.000000 -34.161500 0.000000 0.000000 7.125020
12.935500 15.995500 1.438390 122.700000 -88.147000 -124.654000 -12.743000 0.528448 -14.389700 0.000000 0.000000 41.606600 19.432500 0.000000 -31.628300 0.000000 0.000000 -24.813400 12.452600 6.344270 -12.484000 0.000000 0.000000 44.147900 -21.218500 0.000000 -27.463800 0.000000 0.000000 -5.311520 0.832315 0.817613 -7.104750 -2.210300 1.139670 3.687470 -2.644190 0.654921 7.940380 -2.181700 -0.767502 -4.906500 1.851370 -0.526469 3.178280 -0.000000 -0.000000 0.000000 84.023900 -9.363930 -28.222200 0.000000 0.000000 58.928200 -23.406400 0.000000 -30.105300 0.000000 0.000000 7.125020 -0.000000 -0.000000 0.000000 -88.475600 5.633650 -30.644700 0.000000 0.000000 52.695700 -27.920600 0.000000 -34.296600 0.000000 0.000000 7.125020
12.931500 15.995600 1.445020 122.178000 -88.171900 -124.133000 -12.746100 0.566130 -14.399800 0.000000 0.000000 41.629300 19.419600 0.000000 -31.619200 0.000000 0.000000 -24.831800 12.480200 6.500510 -12.440700 0.000000 0.000000 44.131000 -21.412800 0.000000 -27.488100 0.000000 0.000000 -5.471450 0.832962 0.821237 -7.114020 -2.234790 1.145970 3.669570 -2.669500 0.658507 7.927530 -2.120010 -0.737000 -4.857630 1.772660 -0.502193 3.097020 0.000000 -0.000000 0.000000 84.011400 -9.113940 -28.295500 0.000000 0.000000 59.016300 -23.271000 0.000000 -29.135800 0.000000 0.000000 7.125020 0.000000 -0.000000 0.000000 -88.556500 5.549120 -30.692600 0.000000 0.000000 52.567700 -27.910300 0.000000 -34.404900 0.000000 0.000000 7.125020
12.928500 15.995100 1.451280 121.465000 -88.223700 -123.427000 -12.720000 0.617549 -14.420500 0.000000 0.000000 41.661800 19.355900 0.000000 -31.581900 0.000000 0.000000 -24.874200 12.536300 6.661190 -12.389000 0.000000 0.000000 44.109800 -21.607600 0.000000 -27.529200 0.000000 0.000000 -5.502190 0.856649 0.824902 -7.124080 -2.256900 1.149850 3.655580 -2.705650 0.662159 7.919690 -2.001630 -0.726062 -4.748880 1.660830 -0.492244 2.992380 -0.000000 0.000000 0.000000 84.014600 -8.918770 -28.391100 0.000000 0.000000 59.087100 -23.149100 0.000000 -28.541200 0.000000 0.000000 7.125020 -0.000000 0.000000 0.000000 -88.634100 5.431450 -30.751600 0.000000 0.000000 52.465300 -28.032400 0.000000 -34.527000 0.000000 0.000000 7.125020
